<?xml version="1.0" encoding="utf-8"?>
<!-- Generator: Adobe Illustrator 23.0.0, SVG Export Plug-In . SVG Version: 6.00 Build 0)  -->
<svg version="1.1" id="Layer_1" xmlns="http://www.w3.org/2000/svg" xmlns:xlink="http://www.w3.org/1999/xlink" x="0px" y="0px"
	 viewBox="0 0 510.3 340.5" style="enable-background:new 0 0 510.3 340.5;" xml:space="preserve">
<style type="text/css">
	.st0{opacity:0.7;fill:#FFFFFF;}
</style>
<title>Bun logo</title>
<path class="st0" d="M48.4,148.4c-6.2-1.3-12.4-2.2-18.4-3.9c-6.9-2-10.3-7.2-9.8-13.8c0-3.5,2.3-6.5,5.6-7.5
	c4.1-1.4,8.3-2.3,12.5-2.9c12.2-1.7,24.4-3.1,36.6-4.7c1.3-0.3,2.4-1,3.2-2.1c10.2-12.2,20.8-24.1,33-34.4
	c10.6-8.9,22.4-15.1,36.2-17.2c4.5-0.7,6.1-0.7,8.3,0.5c-0.8,1.4-1.8,2.7-2.8,4c-8.3,9.5-16.7,19.1-25,28.5c-4.4,5-8.8,10-13.7,15.5
	c3.9-0.5,7.2-0.7,10.5-1.3c14.1-2.6,28.3-5,42.3-8.1c13.1-2.9,26-7,37.6-14.1c4.9-3,9.4-6.5,12.3-11.5c7-11.6,1.8-24.8-11.6-29.8
	c-7.7-2.9-15.8-3.9-24-4.5c-18-1.3-35.7,0.8-53.3,3.9c-18.1,3.2-35.9,7.3-53.2,13.6c-2.7,1-5.3,2.2-8,3.5c-1,0.6-1.9,1.3-2.7,2.1
	c1.7,0.8,2.8,1.3,4,1.8c2,0.9,3.9,1.9,5.7,3c1.9,1.2,1.9,2.6-0.1,3.6c-3.2,1.7-6.6,3.2-10,4.5c-15,5.5-30.4,9.9-46,13.2
	c-3.3,0.7-6.7,1.1-10.1,1.2c-5.4,0.2-8.4-3-7.2-8.2c1.1-4.5,2.7-8.9,5-12.9c7.6-13.6,16.6-26.3,27.9-37.2
	c7.2-6.9,16.2-9.9,25.4-12.6c18.8-5.6,37.8-10.1,57-13.7c21.9-4.1,43.9-7.6,66.4-6.8c13.5,0.5,26.9,2.1,39.3,8
	c13.4,6.4,23.7,15.8,26.4,31.3c1.9,10.9-0.8,21-6.7,30.2c-7.1,11.2-17.3,19.1-28.4,25.7C195,105.8,175.8,112,156.1,117
	c-17.8,4.3-35.9,7.5-54.2,9.5c-0.6,0-1.3,0.2-1.8,0.6c-3.1,3.5-6,7.1-9.3,10.9c4.3,0.5,8.1,0.9,12,1.4c22.9,2.9,45.3,7.6,66.6,16.6
	c9.2,3.9,17.6,9.3,23,18.1c6.6,10.8,6,21.9-0.1,32.7c-5.6,9.9-13.9,17.2-23.1,23.5c-24.2,16.6-51.1,26.7-80,31.5
	c-16.5,2.7-33,2.3-49.2-2.3c-9.6-2.8-18.2-7.4-24.6-15.3c-7.9-10-8.8-21.2-5.5-33.1c2.8-9.6,7.2-18.7,12.9-26.8
	c7.9-11.6,16.4-22.9,24.6-34.3L48.4,148.4z M84.9,222.7c17.2-0.1,33.5-4.3,49.2-11.1c8.8-3.8,17.1-8.6,23.9-15.6
	c1.6-1.6,2.9-3.4,4-5.3c4.5-8,2.8-15.1-4.8-20.4c-5.8-4-12.4-6.2-19-8c-18.7-5.2-37.9-7.9-57.1-10.4c-0.9,0.1-1.8,0.6-2.3,1.3
	c-4.3,5-8.6,9.9-12.7,15c-4.9,6.1-9.9,12.1-14.4,18.5c-4.1,5.8-5.5,12.3-2.6,19.1c2.1,5.1,6.1,8.7,10.8,11.4
	C67.5,221.8,76.1,222.8,84.9,222.7z"/>
<path class="st0" d="M510.3,195.5c0,4.5,0,8.5,0,12.5c-0.1,0.7-0.5,1.4-1.1,1.9c-14.4,14.1-28.7,28.3-44.6,40.8
	c-4.8,3.7-9.9,7-15.9,8.5c-10.4,2.6-18.2-2.9-19.8-13.6c-1.7-11.1,1.3-21.2,6.6-30.6c8.3-15,17-29.7,25.5-44.6
	c0.2-0.3,0.3-0.6,0.8-1.5c-1.2,0.6-2,1-2.7,1.4c-7.8,4.8-14.4,10.9-21.1,17.1c-15.6,14.4-28.4,31.3-41.1,48.2
	c-2.8,3.7-5.9,7.2-8.9,10.8c-0.9,1-1.9,1.9-3,2.6c-4.2,2.9-8.3,2.3-11.5-1.7c-5.1-6.5-7.4-14.1-8.9-22c-0.8-4.1-1.2-8.3-1.8-12.8
	c-5.5,5-10.6,9.9-16,14.5c-9.9,8.5-19.9,16.9-30.1,25c-4.7,3.8-10.5,6-16.6,6.2c-10,0.2-15.8-5.2-16.6-15.3
	c-0.8-9.5,2.3-18.1,5.8-26.5c4.3-10.5,9-20.9,13.8-32c-3.6,4.8-6.9,9-10.1,13.2c-11.2,14.3-22.1,28.8-35,41.7
	c-3.1,3.1-6.5,5.9-10.1,8.4c-9.9,7.1-18.9,3.7-25.5-4.1c-6.3-7.4-9.1-16.3-10.5-25.8c-1.9-13.1-1.1-26,5.8-37.7
	c3.8-6.5,8-12.8,12.7-18.8c8.1-10.2,16.7-19.9,25.1-29.8c3.7-4.5,9.2-7.1,15-7c6-0.1,11.8,0,17.5,2c4.5,1.5,5,2.6,3.1,7
	c-3.4,7.8-8.5,14.5-14,20.9c-10,11.6-21.2,22.2-33.4,31.5c-3.6,2.7-6.1,5.7-6.6,10.2s-1.6,9-1.4,13.5c0.2,5.3,4.8,7.5,9.3,4.5
	c5-3.3,9.8-6.9,14.3-10.8c10.7-9,21.2-18.2,31.7-27.5c8-7,14.3-15.5,20.7-24c9.4-12.3,20.2-23.2,31.4-33.9c2.6-2.5,5.6-4.5,9.3-4.9
	c5.1-0.6,7.9,1.4,8.7,6.5c1.5,8.6,0.1,16.5-5.1,23.9c-8.8,12.3-17.3,24.8-25.8,37.4c-5.6,8.3-10.4,17.1-12.6,26.9
	c-0.5,2.4-0.4,5,0.1,7.4c0.8,4,3.1,5.6,7.3,5.7c5-0.1,9.9-1.7,14-4.6c7.6-5.1,14.9-10.5,22.4-15.9c0.7-0.5,1.3-1,2.1-1.5v13
	c2.2-1.3,3.6-2.8,3.4-5.6c-0.3-3.1-0.1-6.3-0.1-9.9l-2.9,2c0.6-4.8,2.3-9.4,4.9-13.4c8.4-14.2,17.3-28,28.8-40
	c4.5-4.7,9.6-8.8,16.3-9.9c4.1-0.8,8.4-0.2,12.2,1.6c3.8,1.9,5.5,5.8,3.6,9.6c-1.4,2.6-3.1,5.1-5.1,7.3
	c-8.5,10.2-17.2,20.2-25.6,30.6c-2.9,3.8-5.4,8-7.4,12.4c-0.9,2.2-1.4,4.6-1.2,7c0,3.6,3.1,5.1,5.8,2.6c3.9-3.6,7.6-7.4,11.1-11.4
	c11.6-13.2,23.1-26.5,36.2-38.3c12-11,24.9-20.8,38.7-29.3c2.9-1.7,6.1-3,9.4-3.8c3.8-1,5.2-0.3,6.7,3.3c1.8,4.4,3,9.1,4.5,13.7
	c0.2,1,0.4,2,0.5,3c0.9,5.4-0.6,9.9-4.2,14c-7.9,9.2-15.8,18.5-23.4,28c-5.4,6.8-10.1,14-13.1,22.3c-1.2,3.4-1.9,6.9-0.8,10.5
	c0.5,2.5,2.6,4.3,5.2,4.3c4.9,0.4,9.2-1.6,13-4.2c9.5-6.6,18.7-13.6,28-20.4C508.3,197,509.1,196.5,510.3,195.5z"/>
<path class="st0" d="M11.1,331.1V293c0.7-0.1,1.4-0.2,2.2-0.2c4.8,0.1,9.7-0.1,14.5,0.4c7.4,0.8,11,8.4,6.8,14.1
	c-1.1,1.5-3,2.5-4.4,3.7c0.2,0.1,0.8,0.3,1.3,0.5c4.4,1.5,6.8,4.7,6.8,9.1c0.2,4.3-2.6,8.2-6.7,9.5c-1.8,0.6-3.7,0.9-5.6,1
	C21,331.2,16.1,331.1,11.1,331.1z M15,312.8v14.8c4.4,0,8.7,0.2,12.9-0.1c3.5-0.1,6.3-2.9,6.5-6.4c0.2-4.1-1.4-6.9-5.6-7.5
	C24.3,312.9,19.7,313.1,15,312.8z M15,309.6c3.7,0,7.1,0.1,10.5,0c4-0.2,6.7-2.5,6.9-5.9c0.3-4-1.6-6.8-5.8-7.3
	c-3.8-0.5-7.7-0.1-11.7-0.1L15,309.6z"/>
<path class="st0" d="M143.2,311.1c3.7,0.9,7.1,3,7.6,7.6c0.9,7.2-3.2,11.9-10.6,12.4c-0.6,0-1.2,0-1.8,0H124V293
	c0.7-0.1,1.4-0.2,2.1-0.2c4.8,0.1,9.7-0.1,14.5,0.4c7.1,0.7,10.9,7.7,7.3,13.5C146.8,308.4,144.8,309.7,143.2,311.1z M127.9,327.6
	c4.3,0,8.4,0.2,12.6-0.1c4.3-0.3,6.8-3,6.9-6.8c0.3-3.8-2.5-7.1-6.3-7.4c-0.1,0-0.2,0-0.2,0c-4.2-0.5-8.6-0.1-13-0.1L127.9,327.6z
	 M127.8,309.9c4.3-0.2,8.4-0.2,12.4-0.8c3.1-0.2,5.4-2.9,5.2-6c0.1-3.3-1.4-5.8-4.8-6.4c-4.2-0.7-8.5-0.6-12.8-0.8L127.8,309.9
	L127.8,309.9z"/>
<path class="st0" d="M237,331.1v-38.5c6.1,0.3,12.2,0.2,18.1,1c4.3,0.6,6.7,4,6.9,8c0.2,4.6-1.6,7.3-6.2,9.1c1.8,1,4,1.9,5.6,3.3
	c4.3,3.9,3.5,12-1.6,14.9c-1.9,1.2-4.1,1.9-6.3,2.1C248,331.3,242.6,331.1,237,331.1z M240.6,328.2c4.9-0.3,9.7-0.3,14.4-1
	c3.5-0.5,5.2-3.3,5.3-6.6s-1.8-6.3-5.4-6.8c-4.7-0.7-9.5-0.6-14.3-0.9L240.6,328.2L240.6,328.2z M240.6,309.6c3.8,0,7.3,0.2,10.8,0
	c4.2-0.3,6.9-2.9,7-6.4c0.1-3.7-2.2-6.4-6.2-6.8c-3.8-0.4-7.6-0.1-11.5-0.1L240.6,309.6z"/>
<path class="st0" d="M373.5,321.4c2.1-0.6,3.5-0.4,4.5,2c1.6,3.8,5.2,4.9,9,5.1s7.5-0.7,9.8-4.2c0.4-0.6,0.6-1.3,0.7-2.1
	c0.5-3.1-1-5.8-4.3-7c-3-1.1-6.2-1.8-9.3-2.8c-1.7-0.5-3.3-1.1-4.8-2c-5.7-3.3-6.1-11-0.9-15.4s15.2-4,19.9,1.1
	c1.4,1.5,2.1,3.6,3.4,5.7c-2.6,0.6-4.1,0.9-5.1-1.7c-0.7-1.5-1.9-2.7-3.4-3.4c-3.2-1.6-6.9-1.8-10.1-0.4c-2.7,0.9-4.5,3.5-4.3,6.4
	c0,3,2,4.5,4.4,5.4c3.5,1.2,7.2,2,10.8,3.2c6.6,2.3,9.3,7,7.2,12.8c-0.7,1.9-1.8,3.5-3.3,4.8c-5.3,4.5-15.4,4.1-20.6-0.6
	C374.8,326.5,373.6,324,373.5,321.4z"/>
<path class="st0" d="M473.1,302.7h3.2v4.7c2.2-1.6,4.2-3.7,6.6-4.6c7.3-2.7,14.1,2,15.3,10.7c0.7,5.1,0.4,10.2-3.3,14.4
	c-4,4.7-10.9,5.2-15.6,1.3c-0.7-0.6-1.4-1.3-1.9-2.1l-0.9-1.2v14.7h-3.4L473.1,302.7L473.1,302.7z M495.3,316.8
	c-0.7-2.3-1-4.8-2-6.9c-2.1-4.2-7.1-5.9-11.3-3.8c-1.5,0.7-2.7,1.9-3.6,3.3c-2.8,4.5-2.8,10.2-0.1,14.8c1.5,2.8,4.5,4.5,7.6,4.3
	c3.4-0.1,6.1-1.7,7.5-4.9C494.2,321.3,494.8,319.1,495.3,316.8L495.3,316.8z"/>
<path class="st0" d="M289,326.4c-2.1,3.5-5.9,5.5-10,5.3c-5.2-0.1-8.9-3.2-9.1-7.7c-0.3-4.9,2.7-8.2,8.1-8.8
	c3.5-0.4,7.1-0.6,10.6-0.9c0.9-4.5-0.1-7-3.1-8.3c-3.7-1.6-8-0.6-10.6,2.5c-0.7,0.9-2.3,1.1-4.1,1.9c1.2-5.2,4.2-7.1,8.2-8
	c6-1.3,11.2,0.9,13,5.6c0.2,0.5,0.4,1.1,0.4,1.7c0,7.1,0,14.1,0,21.3h-3.2C289.1,329.7,289,328.4,289,326.4z M288.7,317.1
	c-3.6,0.3-7,0.6-10.5,1c-3,0.4-4.7,2.3-4.8,4.8s1.8,4.7,4.6,5.3C284.8,329.9,289.6,324.9,288.7,317.1L288.7,317.1z"/>
<path class="st0" d="M351.9,324.3c-0.9,4.1-5,7-10.1,7.4c-9.2,0.5-15.1-6.2-14.2-16.2c0.7-7.1,3.8-11.4,9.5-12.9
	c7.4-1.9,14,2.4,15.2,9.9c0.3,1.6,0.3,3.3,0.4,5.3h-21c-0.7,3.9,1.1,7.9,4.6,9.9c3.5,1.8,8.9,1.1,11-1.8
	C348.7,324,350.1,323.9,351.9,324.3z M348.9,314.8c-0.2-3.7-1.1-6.7-4.2-8.5c-2.9-1.8-6.5-1.6-9.2,0.3c-2.8,1.9-4,4.7-4.1,8.2H348.9
	z"/>
<path class="st0" d="M428.8,331c0-3.5,0-6.9,0-10.3c0-2.8,0.1-5.5-0.1-8.2c-0.3-4.7-2.9-7.2-7.3-7.2c-4.6-0.1-8.3,2.9-8.6,7.3
	c-0.3,5.1-0.2,10.3-0.2,15.5c0,1,0,2,0,3h-3.4v-39.7h3.3v16c0.7-0.8,1-1,1.3-1.4c3-3.8,7-4.5,11.4-3.5s6.6,4.3,6.8,8.5
	c0.3,6.6,0.1,13.3,0.1,20L428.8,331z"/>
<path class="st0" d="M311.3,315.3l12.7,15.6c-2.6,0.6-4.5,0.4-6.2-1.9c-3-4-6.4-7.9-9.5-11.7c-2.5,1.2-3.9,4-3.4,6.7
	c0.2,2.4,0.2,4.7,0.1,7.1h-3.5v-39.7h3.5v24.8c2-1.8,3.5-3.2,4.9-4.6c2.5-2.4,5.1-4.6,7.4-7.1c1.4-1.6,3.6-2.3,5.6-1.7L311.3,315.3z
	"/>
<path class="st0" d="M465.5,316.9c0.2,3.6-0.8,7.2-2.9,10.1c-3.1,4-7.5,5.1-12.3,4.5c-4.4-0.5-8.2-3.5-9.6-7.7
	c-1.6-4.3-1.7-9.1-0.2-13.5c2-6,7.5-9,14.1-8.1c5.9,0.8,10.1,5.5,10.7,11.7C465.5,314.9,465.5,315.9,465.5,316.9z M443.2,316.8
	c0,0.8,0.1,1.8,0.2,2.8c0.5,5.2,4,8.6,8.8,8.9s8.3-2.7,9.3-7.9c0.3-1.8,0.5-3.6,0.3-5.5c-0.5-6.9-5.2-10.9-11.1-9.6
	C445.8,306.5,443.2,310.4,443.2,316.8L443.2,316.8z"/>
<path class="st0" d="M193.5,302.7v5.1c2.6-4.4,6-5.9,10.3-5.8c5.2,0.2,8.9,3.5,9.1,8.7c0.2,6.6,0.1,13.3,0.1,20.2h-3.5v-2.6
	c0-5.1,0-10.2,0-15.2s-2.4-7.7-7-7.9c-4.5-0.2-8.2,2.8-8.5,7.3c-0.3,5.1-0.1,10.3-0.2,15.5c0,1,0,2,0,3h-3.5v-28.3L193.5,302.7
	L193.5,302.7z"/>
<path class="st0" d="M100,331h-3.3c-0.1-0.9-0.1-1.7-0.1-2.6c0-5.1,0-10.2,0-15.2c-0.1-5.2-2.5-7.8-7.2-7.9
	c-4.4-0.2-8.2,3.1-8.4,7.5c0,0.2,0,0.3,0,0.5c-0.2,5-0.1,10-0.1,15v2.8h-3.3v-28.3h3.1v4.2c2.3-3.3,6.2-5.2,10.3-4.9
	c5.1,0.2,8.9,3.2,9.1,8.4C100.2,317.3,100,324.1,100,331z"/>
<path class="st0" d="M68.2,331.1H65v-4.3c-2.3,3.4-6.3,5.3-10.4,4.9c-5.1-0.2-8.9-3.6-9.1-8.8c-0.2-6.6,0-13.3,0-20.1H49
	c0,4.6,0,9.3,0,13.9c0,1.5,0,3,0,4.5c0.2,4.5,2.3,6.8,6.6,7.2s8.1-2,8.8-6c0.4-2.5,0.5-5,0.4-7.4c0.1-4.1,0-8.1,0-12.3h3.3
	L68.2,331.1z"/>
<path class="st0" d="M178,326.7c-3.1,4.2-7.2,5.5-12,4.7c-4.3-0.7-7.4-3.7-7.5-8.1c-0.2-6.8-0.1-13.6-0.1-20.6h3.4v13.7
	c0,1.5,0,3,0,4.5c0.1,4.5,2.2,7,6.4,7.4c4.5,0.5,8.4-2.1,9-6.3c0.3-3,0.4-6,0.4-9c0.1-3.4,0-6.8,0-10.4h3.4V331h-3V326.7z"/>
</svg>
