<?xml version="1.0" encoding="utf-8"?>
<!-- Generator: Adobe Illustrator 23.0.0, SVG Export Plug-In . SVG Version: 6.00 Build 0)  -->
<svg version="1.1" id="Layer_1" xmlns="http://www.w3.org/2000/svg" xmlns:xlink="http://www.w3.org/1999/xlink" x="0px" y="0px"
	 viewBox="0 0 112.1 122.2" style="enable-background:new 0 0 112.1 122.2;" xml:space="preserve">
<style type="text/css">
	.st0{fill:none;}
	.st1{opacity:0.6;enable-background:new    ;}
</style>
<title>heart</title>
<rect x="5.6" y="118.2" class="st0" width="100.1" height="21.4"/>
<path class="st1" d="M87.3,58.7v22.2c0,4.3-3.4,7.8-7.8,7.8H34.1V92c0,1.9,1.4,3.3,3.3,3.3h42.1c2.9,0,2.9,4.4,0,4.4H37.4
	c-4.3,0-7.8-3.4-7.8-7.8V53.2c0-1.9-1.4-3.3-3.3-3.3h-8.8c-2.9,0-2.9-4.4,0-4.4h8.9c4.3,0,7.8,3.4,7.8,7.8v3.3h51
	C86.3,56.5,87.3,57.4,87.3,58.7 M40.2,103.6c-3.1,0-5.5,2.4-5.5,5.5s2.4,5.5,5.5,5.5s5.5-2.4,5.5-5.5S43.2,103.6,40.2,103.6
	 M76.8,103.6c-3.1,0-5.5,2.4-5.5,5.5s2.4,5.5,5.5,5.5c3.1,0,5.5-2.4,5.5-5.5S79.8,103.6,76.8,103.6"/>
</svg>
