<?xml version="1.0" encoding="utf-8"?>
<!-- Generator: Adobe Illustrator 23.0.0, SVG Export Plug-In . SVG Version: 6.00 Build 0)  -->
<svg version="1.1" id="Layer_1" xmlns="http://www.w3.org/2000/svg" xmlns:xlink="http://www.w3.org/1999/xlink" x="0px" y="0px"
	 viewBox="0 0 348.1 72.2" style="enable-background:new 0 0 348.1 72.2;" xml:space="preserve">
<style type="text/css">
	.st0{fill:none;}
	.st1{opacity:0.6;enable-background:new    ;}
	.st2{font-family:'MyriadPro-Regular';}
	.st3{font-size:40px;}
	.st4{opacity:0.6;}
</style>
<title>heart</title>
<rect x="-8.4" y="74.2" class="st0" width="100.1" height="21.4"/>
<text transform="matrix(1 0 0 1 94.772 46.8455)" class="st1 st2 st3">Go to Cart</text>
<path class="st4" d="M73.3,14.7v22.2c0,4.3-3.4,7.8-7.8,7.8H20.1V48c0,1.9,1.4,3.3,3.3,3.3h42.1c2.9,0,2.9,4.4,0,4.4H23.4
	c-4.3,0-7.8-3.4-7.8-7.8V9.2c0-1.9-1.4-3.3-3.3-3.3H3.5c-2.9,0-2.9-4.4,0-4.4h8.9c4.3,0,7.8,3.4,7.8,7.8v3.3h51
	C72.3,12.5,73.3,13.4,73.3,14.7 M26.2,59.6c-3.1,0-5.5,2.4-5.5,5.5c0,3.1,2.4,5.5,5.5,5.5s5.5-2.4,5.5-5.5
	C31.7,62,29.2,59.6,26.2,59.6 M62.8,59.6c-3.1,0-5.5,2.4-5.5,5.5c0,3.1,2.4,5.5,5.5,5.5c3.1,0,5.5-2.4,5.5-5.5
	C68.3,62,65.8,59.6,62.8,59.6"/>
</svg>
