<?xml version="1.0" encoding="utf-8"?>
<!-- Generator: Adobe Illustrator 23.0.0, SVG Export Plug-In . SVG Version: 6.00 Build 0)  -->
<svg version="1.1" id="Layer_1" xmlns="http://www.w3.org/2000/svg" xmlns:xlink="http://www.w3.org/1999/xlink" x="0px" y="0px"
	 viewBox="0 0 348.1 72.2" style="enable-background:new 0 0 348.1 72.2;" xml:space="preserve">
<style type="text/css">
	.st0{opacity:0.6;enable-background:new    ;}
	.st1{fill:none;}
	.st2{font-family:'MyriadPro-Regular';}
	.st3{font-size:40px;}
</style>
<title>heart</title>
<path class="st0" d="M58.3,7.7c9.4,0,17,7.6,17,17c0,4.5-1.8,8.8-5,12l-0.7,0.7L42.9,64L16.4,37.5l-0.7-0.7C9,30.1,9,19.3,15.7,12.7
	c3.2-3.2,7.5-5,11.9-5s8.8,1.7,12,4.9l0.7,0.7l2.6,2.6l2.6-2.6l0.7-0.7C49.4,9.5,53.7,7.7,58.3,7.7"/>
<rect x="-8.4" y="74.2" class="st1" width="100.1" height="21.4"/>
<text transform="matrix(1 0 0 1 94.772 46.8455)" class="st0 st2 st3">Add to Wishlist</text>
</svg>
