<svg id="Layer_1" data-name="Layer 1" xmlns="http://www.w3.org/2000/svg" viewBox="0 0 510.29 340.52"><title>Bun logo</title><path d="M85.45,295.71c-6.22-1.28-12.41-2.17-18.36-3.88-6.9-2-10.26-7.24-9.82-13.82a8,8,0,0,1,5.58-7.55,72.05,72.05,0,0,1,12.54-2.94c12.18-1.7,24.41-3.07,36.6-4.71a5.71,5.71,0,0,0,3.17-2.06c10.21-12.23,20.8-24.08,33-34.4,10.56-8.92,22.4-15.11,36.2-17.24,4.46-.69,6.14-.71,8.28.52a42.33,42.33,0,0,1-2.77,4q-12.48,14.31-25.05,28.54c-4.4,5-8.81,10-13.71,15.51,3.88-.48,7.2-.73,10.46-1.33,14.11-2.6,28.27-5,42.27-8.06,13.14-2.92,26-7,37.59-14.1,4.87-3,9.35-6.5,12.33-11.46,7-11.63,1.78-24.84-11.55-29.77-7.74-2.87-15.8-3.94-24-4.52-18-1.3-35.68.83-53.35,3.92-18.09,3.16-35.91,7.32-53.2,13.56-2.71,1-5.34,2.23-8,3.47a17.05,17.05,0,0,0-2.71,2.15c1.67.77,2.85,1.27,4,1.84a55.53,55.53,0,0,1,5.73,3c1.88,1.23,1.87,2.57-.13,3.61a80,80,0,0,1-10,4.46A350.88,350.88,0,0,1,54.58,237.7a58.36,58.36,0,0,1-10.12,1.19c-5.36.16-8.37-3-7.15-8.24a50.65,50.65,0,0,1,5-12.92c7.59-13.65,16.58-26.3,27.87-37.23,7.17-6.94,16.18-9.87,25.39-12.57a573.29,573.29,0,0,1,57.05-13.74c21.93-4.09,43.93-7.59,66.36-6.76,13.55.51,26.94,2.1,39.34,8,13.43,6.43,23.69,15.83,26.35,31.31,1.88,10.91-.84,21-6.72,30.22-7.11,11.17-17.26,19.07-28.42,25.74-17.55,10.5-36.79,16.74-56.48,21.69a434.05,434.05,0,0,1-54.18,9.53,3,3,0,0,0-1.78.65c-3.06,3.49-6,7.06-9.3,10.92,4.26.49,8.13.88,12,1.38,22.85,2.93,45.28,7.61,66.59,16.61,9.23,3.9,17.62,9.27,23,18.09,6.57,10.83,6,21.87-.14,32.69-5.6,9.85-13.94,17.17-23.12,23.45-24.24,16.58-51.12,26.71-80,31.51-16.51,2.74-33,2.34-49.23-2.33-9.62-2.76-18.25-7.35-24.59-15.34-7.89-9.95-8.75-21.23-5.5-33.1a89.17,89.17,0,0,1,12.94-26.83c7.94-11.59,16.36-22.85,24.58-34.26ZM121.9,370c17.2-.14,33.5-4.3,49.17-11.14,8.8-3.84,17.09-8.6,23.87-15.57a25.88,25.88,0,0,0,4-5.34c4.48-8,2.79-15.14-4.75-20.4-5.75-4-12.35-6.16-19-8-18.72-5.17-37.91-7.85-57.11-10.39a3.39,3.39,0,0,0-2.34,1.32c-4.3,5-8.61,9.94-12.74,15-4.91,6.08-9.88,12.13-14.4,18.5-4.1,5.78-5.46,12.34-2.6,19.14,2.13,5.08,6.13,8.67,10.81,11.39C104.59,369.06,113.13,370.08,121.9,370Z" transform="translate(-37.04 -147.31)"/><path d="M547.32,342.85c0,4.54,0,8.51-.05,12.48a3.24,3.24,0,0,1-1.08,1.85c-14.38,14.12-28.69,28.32-44.59,40.76-4.78,3.74-9.89,7-15.92,8.55-10.37,2.63-18.23-2.92-19.82-13.58-1.66-11.11,1.3-21.17,6.56-30.64,8.31-14.95,16.95-29.71,25.45-44.56.17-.28.31-.58.79-1.51-1.25.65-2,1-2.71,1.43-7.78,4.77-14.44,10.92-21.11,17.08-15.64,14.43-28.36,31.32-41.07,48.23-2.79,3.72-5.88,7.22-8.92,10.75a14.94,14.94,0,0,1-3,2.59c-4.24,2.85-8.33,2.31-11.46-1.67-5.07-6.45-7.38-14.09-8.91-22-.8-4.12-1.16-8.33-1.76-12.8-5.45,5-10.6,9.91-16,14.53-9.94,8.46-19.9,16.91-30.14,25A27.38,27.38,0,0,1,337,405.53c-10,.21-15.81-5.22-16.65-15.26-.8-9.48,2.29-18.06,5.78-26.52,4.33-10.51,9-20.9,13.76-32-3.65,4.76-6.85,9-10.11,13.16-11.2,14.28-22.15,28.77-35,41.69A78.9,78.9,0,0,1,284.69,395c-9.87,7.1-18.91,3.66-25.54-4.06-6.34-7.39-9.09-16.34-10.46-25.77-1.91-13.14-1.09-26,5.83-37.7a166.92,166.92,0,0,1,12.66-18.79c8.08-10.16,16.7-19.89,25.06-29.82a19.23,19.23,0,0,1,15.05-7.05c6-.13,11.82,0,17.52,2,4.45,1.54,5,2.64,3.07,7-3.43,7.77-8.45,14.49-14,20.86a217.62,217.62,0,0,1-33.39,31.47c-3.58,2.71-6.12,5.69-6.65,10.18s-1.63,9-1.42,13.51c.25,5.32,4.78,7.45,9.29,4.5a145.91,145.91,0,0,0,14.31-10.82c10.67-9,21.2-18.24,31.71-27.47,8-7,14.29-15.55,20.71-24,9.41-12.27,20.19-23.25,31.37-33.86,2.61-2.49,5.58-4.46,9.32-4.94,5.12-.65,7.89,1.42,8.73,6.5,1.45,8.65.13,16.54-5.14,23.89-8.82,12.3-17.32,24.84-25.81,37.38-5.61,8.3-10.39,17.07-12.63,26.94a18.54,18.54,0,0,0,.1,7.38c.75,4,3.11,5.65,7.27,5.7a24.4,24.4,0,0,0,14-4.65c7.58-5.1,14.94-10.55,22.38-15.86.67-.47,1.32-1,2.11-1.55v13c2.24-1.32,3.58-2.81,3.35-5.58-.27-3.12-.07-6.28-.07-9.85l-2.9,2a33,33,0,0,1,4.88-13.43c8.37-14.22,17.34-28,28.8-40,4.54-4.74,9.61-8.79,16.34-9.9a19.47,19.47,0,0,1,12.17,1.62c3.81,1.92,5.46,5.81,3.61,9.65a36.89,36.89,0,0,1-5.07,7.33C452.75,311,444,321,435.65,331.42a67.38,67.38,0,0,0-7.44,12.36,15.74,15.74,0,0,0-1.24,7c0,3.64,3.14,5.09,5.82,2.65A146.71,146.71,0,0,0,443.92,342c11.63-13.17,23.1-26.48,36.18-38.29a259.86,259.86,0,0,1,38.74-29.34,35.69,35.69,0,0,1,9.38-3.81c3.78-1,5.25-.31,6.72,3.31,1.79,4.43,3,9.1,4.46,13.69a23.87,23.87,0,0,1,.48,2.95c.92,5.37-.63,9.87-4.21,14-7.93,9.19-15.8,18.46-23.38,27.95-5.4,6.77-10.12,14-13.08,22.28-1.23,3.42-1.85,6.91-.79,10.51a5.32,5.32,0,0,0,5.17,4.29c4.93.44,9.23-1.59,13-4.24,9.47-6.61,18.7-13.57,28-20.4C545.37,344.34,546.09,343.78,547.32,342.85Z" transform="translate(-37.04 -147.31)"/><path d="M48.15,478.44V440.33a20,20,0,0,1,2.16-.21c4.82.08,9.68-.14,14.46.37,7.41.79,11,8.4,6.85,14.13-1.11,1.53-3,2.52-4.45,3.73.22.09.76.31,1.32.5,4.36,1.49,6.78,4.74,6.78,9.09a9.45,9.45,0,0,1-6.71,9.47,20.14,20.14,0,0,1-5.6,1C58.08,478.53,53.19,478.44,48.15,478.44ZM52,460.12v14.8c4.42,0,8.66.23,12.86-.07a6.68,6.68,0,0,0,6.52-6.35c.22-4.12-1.43-6.87-5.61-7.55C61.34,460.23,56.75,460.37,52,460.12ZM52,456.91c3.73,0,7.14.12,10.55,0,4-.19,6.67-2.54,6.93-5.86.32-4-1.56-6.77-5.82-7.29-3.82-.45-7.74-.09-11.66-.09Z" transform="translate(-37.04 -147.31)"/><path d="M180.23,458.43c3.74.9,7.08,3,7.64,7.58.89,7.22-3.22,11.9-10.57,12.4-.58,0-1.16,0-1.75,0H161.12V440.32a18.69,18.69,0,0,1,2.06-.2c4.82.08,9.67-.14,14.45.36,7.13.74,10.85,7.7,7.3,13.47C183.83,455.75,181.8,457,180.23,458.43ZM164.9,474.94c4.3,0,8.44.24,12.55-.06,4.3-.32,6.77-3,6.94-6.75a6.88,6.88,0,0,0-6.51-7.46c-4.25-.45-8.57-.1-13-.1Zm-.09-17.77c4.32-.24,8.39-.19,12.37-.77a5.65,5.65,0,0,0,5.23-6c.08-3.26-1.42-5.83-4.76-6.38-4.18-.69-8.5-.58-12.84-.81Z" transform="translate(-37.04 -147.31)"/><path d="M274,478.4V439.85c6.09.3,12.16.2,18.11,1,4.34.59,6.68,4,6.87,8,.22,4.62-1.64,7.29-6.21,9.13,1.8,1,4,1.86,5.56,3.31,4.31,3.92,3.47,12-1.56,14.92a14.69,14.69,0,0,1-6.3,2.08C285.09,478.6,279.67,478.4,274,478.4Zm3.63-2.9c4.9-.31,9.71-.28,14.4-1,3.48-.54,5.22-3.3,5.28-6.63s-1.81-6.3-5.35-6.84c-4.68-.72-9.48-.63-14.33-.9Zm0-18.61c3.78,0,7.29.18,10.76-.05,4.2-.26,6.9-2.92,7-6.41.08-3.66-2.17-6.41-6.25-6.78-3.77-.35-7.59-.08-11.49-.08Z" transform="translate(-37.04 -147.31)"/><path d="M410.5,468.66c2.14-.56,3.47-.36,4.45,2,1.57,3.84,5.23,4.92,9,5.15s7.46-.67,9.75-4.25a5.5,5.5,0,0,0,.73-2.08c.51-3.14-1-5.78-4.31-7-3-1.12-6.22-1.79-9.3-2.76a25.79,25.79,0,0,1-4.84-1.95c-5.7-3.27-6.11-11-.89-15.41s15.24-4,19.88,1.06c1.38,1.51,2.15,3.58,3.37,5.67-2.57.56-4.14.94-5.08-1.71a7.42,7.42,0,0,0-3.43-3.39,11.77,11.77,0,0,0-10.14-.35,6.43,6.43,0,0,0-4.34,6.35c0,3,2,4.52,4.44,5.35,3.54,1.21,7.23,1.95,10.77,3.17,6.59,2.27,9.3,7,7.24,12.83a11.62,11.62,0,0,1-3.32,4.84c-5.34,4.47-15.43,4.06-20.61-.61A9.83,9.83,0,0,1,410.5,468.66Z" transform="translate(-37.04 -147.31)"/><path d="M510.13,450h3.21v4.73c2.23-1.61,4.17-3.73,6.56-4.61,7.32-2.71,14.1,2.05,15.35,10.69.74,5.12.36,10.22-3.3,14.37a11.06,11.06,0,0,1-17.5-.82l-.94-1.21v14.72h-3.38Zm22.18,14.11c-.66-2.34-1-4.81-2-6.89a8.45,8.45,0,0,0-14.88-.47,14.28,14.28,0,0,0-.08,14.76,8,8,0,0,0,7.64,4.27c3.44-.12,6.13-1.67,7.47-4.89A55.69,55.69,0,0,0,532.31,464.06Z" transform="translate(-37.04 -147.31)"/><path d="M326,473.68a10.92,10.92,0,0,1-10,5.26c-5.19-.1-8.89-3.2-9.15-7.68-.29-4.86,2.71-8.19,8.15-8.82,3.54-.4,7.11-.59,10.62-.86.89-4.52-.1-7.05-3.15-8.33a9.13,9.13,0,0,0-10.59,2.46c-.71.91-2.33,1.12-4.1,1.91,1.16-5.24,4.21-7.12,8.22-8,6.05-1.28,11.17.94,13,5.65a5,5,0,0,1,.43,1.67c0,7.06,0,14.12,0,21.33h-3.17C326.15,477,326.07,475.66,326,473.68Zm-.24-9.22c-3.58.34-7,.56-10.49,1-3,.4-4.73,2.32-4.8,4.84s1.75,4.68,4.64,5.33C321.79,477.18,326.64,472.25,325.71,464.46Z" transform="translate(-37.04 -147.31)"/><path d="M388.93,471.57c-.91,4.07-5,7.05-10.11,7.36-9.24.55-15.15-6.22-14.18-16.24.69-7.15,3.83-11.4,9.49-12.88,7.4-1.94,14,2.36,15.25,9.94.26,1.61.26,3.27.41,5.26h-21a9.31,9.31,0,0,0,4.65,9.86c3.54,1.78,8.9,1.14,11-1.78C385.76,471.3,387.14,471.23,388.93,471.57Zm-3-9.43c-.17-3.68-1.1-6.7-4.25-8.48a8.31,8.31,0,0,0-9.2.32c-2.83,1.89-4,4.68-4.08,8.16Z" transform="translate(-37.04 -147.31)"/><path d="M465.87,478.29c0-3.52,0-6.92,0-10.31,0-2.75.12-5.5-.08-8.24-.34-4.68-2.94-7.16-7.26-7.21-4.6-.06-8.33,2.93-8.56,7.31-.28,5.15-.17,10.32-.22,15.47,0,1,0,2,0,3h-3.36V438.64h3.28v16c.71-.75,1-1,1.29-1.37,3-3.76,7-4.53,11.42-3.52s6.64,4.26,6.83,8.46c.31,6.62.08,13.27.08,20.05Z" transform="translate(-37.04 -147.31)"/><path d="M348.34,462.61,361,478.17c-2.62.6-4.49.37-6.17-1.88-3-4.05-6.36-7.86-9.53-11.74a6.21,6.21,0,0,0-3.38,6.69,61.27,61.27,0,0,1,.06,7.06h-3.45V438.61H342V463.4c2-1.82,3.47-3.17,4.93-4.56,2.48-2.35,5.07-4.6,7.35-7.13a5.31,5.31,0,0,1,5.6-1.69Z" transform="translate(-37.04 -147.31)"/><path d="M502.54,464.23a15.48,15.48,0,0,1-2.94,10.11c-3.1,4-7.46,5.13-12.26,4.46a11.28,11.28,0,0,1-9.57-7.73,19.62,19.62,0,0,1-.17-13.45c2-5.95,7.53-9,14.09-8.12,5.88.82,10.13,5.45,10.71,11.73C502.5,462.23,502.5,463.23,502.54,464.23Zm-22.3-.09c.05.78.09,1.78.19,2.77.52,5.18,4,8.63,8.79,8.85s8.33-2.74,9.28-7.91a21.68,21.68,0,0,0,.34-5.45c-.49-6.86-5.21-10.88-11.13-9.63C482.86,453.79,480.27,457.66,480.24,464.14Z" transform="translate(-37.04 -147.31)"/><path d="M230.51,450v5.11c2.58-4.36,6-5.92,10.29-5.75,5.19.2,8.92,3.45,9.1,8.66.23,6.65.06,13.31.06,20.17H246.5v-2.58c0-5.08,0-10.16,0-15.24s-2.45-7.7-7-7.88-8.24,2.76-8.52,7.32c-.32,5.15-.15,10.32-.19,15.48,0,1,0,1.95,0,3h-3.45V450Z" transform="translate(-37.04 -147.31)"/><path d="M137,478.32h-3.28c-.05-.87-.14-1.74-.14-2.61,0-5.08,0-10.16,0-15.24-.07-5.23-2.47-7.81-7.21-7.94a8,8,0,0,0-8.44,8c-.15,5-.08,10-.1,15v2.82H114.5V450.05h3.06v4.24a11.5,11.5,0,0,1,10.3-4.89c5.15.22,8.86,3.25,9.09,8.38C137.26,464.58,137,471.39,137,478.32Z" transform="translate(-37.04 -147.31)"/><path d="M105.21,478.37H102v-4.3a11.27,11.27,0,0,1-10.43,4.87c-5.11-.25-8.91-3.63-9.09-8.75-.22-6.64,0-13.29,0-20.12h3.48c0,4.62,0,9.26,0,13.89,0,1.5,0,3,0,4.49.18,4.53,2.3,6.83,6.63,7.24s8.1-2,8.83-6a45,45,0,0,0,.45-7.44c.07-4.06,0-8.11,0-12.27h3.34Z" transform="translate(-37.04 -147.31)"/><path d="M215,474.05c-3.1,4.22-7.16,5.48-12,4.69-4.33-.71-7.36-3.72-7.52-8.09-.25-6.81-.07-13.63-.07-20.6h3.45v13.73c0,1.5,0,3,0,4.5.12,4.55,2.25,7,6.43,7.44,4.48.47,8.4-2.1,9-6.34a66.89,66.89,0,0,0,.35-9c.06-3.39,0-6.8,0-10.36h3.44v28.27H215Z" transform="translate(-37.04 -147.31)"/></svg>